<?xml version="1.0"?>
<svg xmlns="http://www.w3.org/2000/svg" xmlns:xlink="http://www.w3.org/1999/xlink" xmlns:svgjs="http://svgjs.com/svgjs" version="1.1" width="512" height="512" x="0" y="0" viewBox="0 0 512 512" style="enable-background:new 0 0 512 512" xml:space="preserve" class=""><g>
<g xmlns="http://www.w3.org/2000/svg">
	<g>
		<path d="M265.938,317.531c-34.96-39.189-16.458-56.835-60.487-100.658c-24.127-24.069-40.538-24.465-59.719-37.92    c-3.47-2.426-8.249-1.597-10.685,1.873c-2.436,3.47-1.597,8.259,1.873,10.695c23.762,16.698,44.293,15.183,72.605,53.405    c22.128,29.853,12.551,46.527,44.951,82.819c1.515,1.699,3.623,2.569,5.731,2.569    C266.785,330.314,270.339,322.491,265.938,317.531z" fill="#ffffff" data-original="#000000" style="" class=""/>
	</g>
</g>
<g xmlns="http://www.w3.org/2000/svg">
	<g>
		<path d="M396.229,495.835c-0.055,0.049-0.058,0.052,0.007-0.006C396.234,495.831,396.231,495.833,396.229,495.835z" fill="#ffffff" data-original="#000000" style="" class=""/>
	</g>
</g>
<g xmlns="http://www.w3.org/2000/svg">
	<g>
		<path d="M471.84,389.685c-16.763-25.993-10.385-42.826-41.051-77.088c-29.406-32.871-46.756-30.131-69.197-47.08    c13.98-19.966,18.503-34.106,22.496-53.712c2.794-13.694,5.424-26.62,19.487-47.172c25.801-37.706,42.186-30.826,68.214-61.551    c8.374-9.878,6.339-24.947-4.421-32.321c-7.824-5.355-90.034-61.614-97.854-66.966c-9.365-6.407-22.322-4.524-29.496,4.288    c-24.316,29.882-42.531,23.477-70.712,64.663c-14.953,21.851-18.515,36.517-21.37,50.375    c-15.486-7.525-27.263-11.853-45.483-32.219c-24.67-27.558-22.266-42.066-33.641-64.786C158.832,6.203,132.493,1.2,115.764,16.17    c-8.016,7.174-63.169,56.526-69.688,62.36c-12.537,11.217-15.025,29.629-5.916,43.784c16.802,26.093,10.394,42.83,41.041,77.088    c29.507,32.966,46.609,30.025,69.217,47.08c-31.051,44.361-13.587,59.389-41.993,100.873C82.776,384.84,66,378.475,40.212,408.916    c-6.089,7.182-6.901,17.586-1.893,25.689c3.308,5.352-0.412,2.024,79.616,56.792C139.665,505.123,143.757,512,154.84,512    c6.448,0,12.834-2.794,17.143-8.085c24.335-29.906,42.526-23.473,70.722-64.673c14.953-21.851,18.515-36.528,21.36-50.375    c16.572,7.935,27.964,12.648,45.483,32.229c24.666,27.57,22.286,42.106,33.641,64.786c9.917,19.793,36.204,24.989,53.039,9.954    c0.919-0.824,19.224-17.201,69.695-62.356C478.461,422.252,480.949,403.84,471.84,389.685z M441.372,71.573l17.325,11.86    c3.262,2.23,3.881,6.775,1.382,9.723c-23.635,27.903-41.46,22.328-69.176,62.81c-30.631,44.757-12.978,58.177-40.959,99.379    c-6.409-6.345-13.6-14.744-18.832-22.752c24.599-40.108,9.195-52.598,36.528-92.542c26.957-39.368,44.149-30.45,71.95-66.147    C439.623,73.861,440.767,72.365,441.372,71.573z M281.976,81.416c26.333-38.483,43.118-30.672,69.944-63.65    c2.18-2.661,6.09-3.234,8.925-1.3l18.085,12.384c-25.853,34.213-44.142,25.729-73.168,67.723c-3.553,5.12,0.2,12.036,6.305,12.036    c2.436,0,4.831-1.157,6.315-3.306c27.28-39.447,44.64-29.606,73.24-67.774l37.131,25.414c-0.393,0.532-0.849,0.982-1.279,1.525    c-25.26,32.454-43.692,24.804-72.492,66.914c-26.99,39.421-16.674,54.67-32.372,85.102c-6.68-16-8.38-31.133-26.273-53.691    c2.638-10.993,3.649-20.554,8.198-32.25c1.545-3.951-0.409-8.392-4.36-9.938c-3.951-1.535-8.403,0.42-9.938,4.37    c-3.408,8.74-5.046,16.294-6.53,23.55c-7.963-8.055-15.055-13.54-21.667-17.716C265.561,113.662,267.967,101.873,281.976,81.416z     M83.32,449.108c26.1-34.54,44.3-25.536,73.71-68.491c23.777-34.765,18.745-51.374,27.828-75.02    c1.515-3.951-0.461-8.392-4.411-9.917c-3.961-1.515-8.403,0.461-9.917,4.411c-9.949,25.867-4.278,39.849-26.17,71.858    c-27.497,40.183-45.022,30.146-73.731,68.48l-17.327-11.862c-3.262-2.23-3.881-6.775-1.382-9.723    c23.492-27.731,41.611-22.517,69.176-62.821c30.664-44.786,12.969-58.125,40.959-99.369c38.88,38.685,24.063,55.301,53.599,92.563    c-4.285,18.044-4.326,31.613-21.554,56.772c-27.495,40.182-45.006,30.152-73.731,68.48L83.32,449.108z M230.035,430.573    c-26.146,38.209-43.341,30.959-69.964,63.66c-2.17,2.661-6.09,3.234-8.914,1.3l-18.085-12.384    c26.221-34.702,44.165-25.326,73.7-68.491c15.25-22.281,18.658-37.091,21.534-51.184c7.963,8.055,15.045,13.54,21.667,17.716    C246.331,398.667,243.957,410.226,230.035,430.573z M455.689,422.037l-8.392,7.512c-27.303-33.578-14.219-49.101-48.953-87.926    c-28.165-31.468-45.366-30.37-66.331-44.992c-13.905-9.648-30.656-27.945-39.168-45.176c-1.873-3.807-6.479-5.373-10.276-3.5    c-3.807,1.873-5.373,6.479-3.5,10.286c9.189,18.562,25.761,36.877,39.363,47.448c25.514,19.942,40.656,15.081,68.48,46.179    c32.387,36.2,18.637,51.022,48.932,87.926l-33.468,29.947c-27.464-33.777-14.066-48.938-48.953-87.916    c-18.678-20.879-32.587-27.449-46.036-33.805c-18.623-8.818-18.739-10.577-21.237-11.719c-8.391-4.054-15.471,7.789-7.707,13.223    c22.782,15.823,37.705,13.667,63.547,42.535c32.547,36.4,18.483,50.834,48.932,87.926c-2.675,1.757-8.953,11.141-20.95,8.853    c-22.89-4.349-11.876-36.521-48.994-77.988c-37.298-41.696-52.8-25.162-88.407-65.328    c-34.073-38.942-16.174-57.728-61.214-101.242c-31.211-30.194-47.459-20.168-78.715-55.124    c-28.468-31.82-21.014-46.328-39.578-75.164c-4.995-7.758-3.633-17.87,3.244-24.031l8.392-7.512    c27.11,33.34,14.429,48.987,48.328,87.22c1.515,1.709,3.623,2.589,5.742,2.589c6.553,0,10.137-7.818,5.742-12.773    c-31.728-35.814-18.178-50.515-48.359-87.282l33.432-29.917c0.547,0.617,0.855,0.973,1.284,1.526    c25.303,32.043,13.815,48.49,47.694,86.36c36.726,41.033,53.19,25.922,87.21,63.967c26.17,29.277,18.485,39.782,29.23,39.782    c5.33,0,9.118-5.385,7.154-10.439c-7.694-19.906-21.103-37.128-35.944-50.795c-29.771-27.469-45.681-18.64-76.208-52.76    c-31.843-35.593-19.004-50.074-47.09-85.634c-0.234-0.299-1.342-1.399-2.051-2.077c3.57-2.741,9.392-11.27,21.159-9.059    c22.834,4.337,11.913,36.56,48.983,77.978c36.561,40.849,53.401,26.134,87.21,63.967c30.712,34.56,19.949,48.649,43.641,81.1    c7.76,10.65,19.126,23.01,30.407,31.533c24.77,18.732,39.815,14.627,67.088,45.094c28.439,31.788,21.044,46.385,39.578,75.174    C463.928,405.764,462.567,415.876,455.689,422.037z" fill="#ffffff" data-original="#000000" style="" class=""/>
	</g>
</g>
<g xmlns="http://www.w3.org/2000/svg">
</g>
<g xmlns="http://www.w3.org/2000/svg">
</g>
<g xmlns="http://www.w3.org/2000/svg">
</g>
<g xmlns="http://www.w3.org/2000/svg">
</g>
<g xmlns="http://www.w3.org/2000/svg">
</g>
<g xmlns="http://www.w3.org/2000/svg">
</g>
<g xmlns="http://www.w3.org/2000/svg">
</g>
<g xmlns="http://www.w3.org/2000/svg">
</g>
<g xmlns="http://www.w3.org/2000/svg">
</g>
<g xmlns="http://www.w3.org/2000/svg">
</g>
<g xmlns="http://www.w3.org/2000/svg">
</g>
<g xmlns="http://www.w3.org/2000/svg">
</g>
<g xmlns="http://www.w3.org/2000/svg">
</g>
<g xmlns="http://www.w3.org/2000/svg">
</g>
<g xmlns="http://www.w3.org/2000/svg">
</g>
</g></svg>
