<?xml version="1.0"?>
<svg xmlns="http://www.w3.org/2000/svg" xmlns:xlink="http://www.w3.org/1999/xlink" xmlns:svgjs="http://svgjs.com/svgjs" version="1.1" width="512" height="512" x="0" y="0" viewBox="0 0 512 512" style="enable-background:new 0 0 512 512" xml:space="preserve" class=""><g><g xmlns="http://www.w3.org/2000/svg"><path d="m95.761 239.069h-.028c-5.523 0-9.986 4.477-9.986 10s4.491 10 10.014 10 10-4.477 10-10-4.477-10-10-10z" fill="#ffffff" data-original="#000000" style="" class=""/><path d="m173.88 213.076h-.028c-5.523 0-9.986 4.477-9.986 10s4.491 10 10.014 10 10-4.477 10-10-4.477-10-10-10z" fill="#ffffff" data-original="#000000" style="" class=""/><path d="m202.643 159.19h-.057c-5.523 0-9.972 4.477-9.972 10s4.505 10 10.028 10 10-4.477 10-10-4.476-10-9.999-10z" fill="#ffffff" data-original="#000000" style="" class=""/><path d="m164.463 333.518c-5.523 0-10 4.477-10 10s4.477 10 10 10h.057c5.523 0 9.972-4.477 9.972-10s-4.506-10-10.029-10z" fill="#ffffff" data-original="#000000" style="" class=""/><path d="m506.784 52.445c-3.093-4.575-9.31-5.777-13.885-2.683l-150.58 101.811c-7.481-12.688-19.599-22.672-34.261-28.248l105.738-106.272c3.896-3.915 3.879-10.247-.036-14.142s-10.247-3.879-14.142.036l-114.97 115.551c-4.02-.19-8.045-.079-12.046.359-15.699-16.44-38.832-26.109-63.038-26.109-24.223 0-47.365 9.668-63.066 26.108-2.763-.303-5.54-.456-8.303-.456-33.792 0-62.157 21.544-68.318 50.951-20.378 11.426-32.822 31.439-32.822 53.355 0 1.961.101 3.92.302 5.866-19.229 13.346-30.584 33.868-33.79 61.109-.003.022-.002.043-.004.065-.019.169-.024.342-.034.513-.011.176-.025.353-.027.528 0 .021-.003.041-.003.062 0 49.346 21.591 95.667 60.795 130.433 14.564 12.915 30.916 23.655 48.555 32.037v40.147c0 10.219 8.8 18.532 19.616 18.532h154.197c10.816 0 19.616-8.314 19.616-18.532v-40.147c17.639-8.382 33.991-19.122 48.555-32.037 38.784-34.392 60.316-80.097 60.774-128.848 2.038-6.904 5.824-24.916-3.478-41.829-6.022-10.949-16.153-19.054-30.178-24.167.081-1.241.122-2.486.122-3.732 0-21.432-11.905-41.039-31.488-52.581l153.516-103.794c4.575-3.094 5.776-9.31 2.683-13.886zm-220.505 439.555h-153.429v-30.397c24.076 8.605 50.01 13.122 76.714 13.122 26.705 0 52.639-4.517 76.715-13.122zm-76.715-37.275c-77.406 0-143.918-41.851-171.916-101.207h76.181c5.523 0 10-4.477 10-10s-4.477-10-10-10h-83.92c-3.222-10.513-5.295-21.437-6.067-32.667h371.445c-.771 11.23-2.845 22.154-6.067 32.667h-174.124c-5.523 0-10 4.477-10 10s4.477 10 10 10h166.385c-27.998 59.357-94.51 101.207-171.917 101.207zm126.396-269.726c16.107 7.518 26.113 21.967 26.113 37.709 0 2.866-.33 5.717-.981 8.475-1.253 5.313 1.985 10.649 7.276 11.99 12.989 3.292 21.817 9.037 26.238 17.074 3.933 7.15 3.885 15.06 3.093 20.604h-372.28c4.267-17.7 13.433-30.431 27.857-38.695 3.841-2.201 5.778-6.665 4.761-10.974-.651-2.759-.981-5.61-.981-8.475 0-15.742 10.006-30.191 26.113-37.709 3.159-1.474 5.322-4.487 5.708-7.952 2.46-22.032 23.663-38.646 49.318-38.646 3.454 0 6.939.324 10.36.963 3.594.672 7.261-.668 9.575-3.495 11.854-14.478 31.082-23.122 51.434-23.122 20.334 0 39.551 8.644 51.406 23.122 1.292 1.578 3.065 2.738 5.028 3.291 2.209.622 4.242.216 6.454-.119 5.021-.761 10.04-.756 15.085-.26 16.875 1.921 31.102 11.112 38.168 24.025l-32.886 22.235c-9.958-7.615-22.804-12.216-36.819-12.216-5.523 0-10 4.477-10 10s4.477 10 10 10c11.442 0 21.69 4.451 28.519 11.434.066.076.142.139.211.212 5.29 5.505 8.471 12.55 8.471 20.221 0 5.523 4.477 10 10 10s10-4.477 10-10c0-8.912-2.493-17.305-6.878-24.638l26.207-17.719c.925 1.11 2.079 2.034 3.43 2.665z" fill="#ffffff" data-original="#000000" style="" class=""/><path d="m131.502 170.954h-.057c-5.523 0-9.972 4.477-9.972 10s4.505 10 10.028 10 10-4.477 10-10-4.477-10-9.999-10z" fill="#ffffff" data-original="#000000" style="" class=""/></g></g></svg>
